<svg xmlns="http://www.w3.org/2000/svg" viewBox="2890 4031 140.247 40"><defs><style>.a{fill:#fff;}</style></defs><g transform="translate(2827.843 3960.21)"><g transform="translate(109.627 70.79)"><path class="a" d="M228.445,101.943c1.234.538,1.329.949.348,2.784-.981,1.9-1.234,1.993-2.436,1.518a13.583,13.583,0,0,0-4.745-1.139c-2.056,0-3.448.728-3.448,1.866,0,3.7,11.83,1.708,11.83,9.616,0,3.986-3.416,6.643-8.541,6.643a20.175,20.175,0,0,1-8.319-2.056c-1.139-.569-1.2-.917-.221-2.815.854-1.677,1.139-1.835,2.372-1.329a17.442,17.442,0,0,0,6.105,1.518c1.9,0,3.132-.759,3.132-1.9,0-3.606-12.052-1.9-12.052-9.553,0-4.081,3.385-6.8,8.477-6.8A19.337,19.337,0,0,1,228.445,101.943Z" transform="translate(-212.226 -90.963)"/><path class="a" d="M282.078,72.375v29.481a1.068,1.068,0,0,1-1.139.917h-3.1a1.068,1.068,0,0,1-1.139-.917V72.375c0-1.455.411-1.582,2.689-1.582C281.983,70.762,282.078,70.951,282.078,72.375Z" transform="translate(-256.305 -70.79)"/><path class="a" d="M321.354,109.125v12.685a1.1,1.1,0,0,1-1.139,1.139h-3.068a1.081,1.081,0,0,1-1.139-1.2l.032-1.36a8.728,8.728,0,0,1-6.421,2.815c-4.618,0-7.718-2.689-7.718-6.674,0-4.239,3.511-7.117,8.762-7.117a13.73,13.73,0,0,1,5.314.981v-1.455c0-2.341-1.835-3.733-4.966-3.733a9.8,9.8,0,0,0-4.682,1.423c-1.107.633-1.36.569-2.562-1.2-1.17-1.771-1.139-2.119,0-2.847a15.015,15.015,0,0,1,7.782-2.278C317.558,100.268,321.354,103.558,321.354,109.125Zm-14.3,7.339c0,1.518,1.265,2.531,3.226,2.531a6.733,6.733,0,0,0,5.694-3.037v-1.993a11.928,11.928,0,0,0-4.081-.728C308.986,113.237,307.056,114.6,307.056,116.464Z" transform="translate(-273.534 -90.965)"/><path class="a" d="M390.11,101.84c1.139.664,1.17,1.012-.063,2.91-1.17,1.8-1.36,1.9-2.594,1.265a8.637,8.637,0,0,0-3.7-.917,6.094,6.094,0,0,0-6.485,6.421c0,4.017,2.594,6.706,6.485,6.706a9.217,9.217,0,0,0,4.144-1.139c1.139-.664,1.36-.6,2.562,1.139,1.076,1.613,1.044,1.993.095,2.689a13.037,13.037,0,0,1-6.864,2.119c-7.181,0-11.989-4.618-11.989-11.514,0-6.864,4.808-11.419,12.052-11.419A14.286,14.286,0,0,1,390.11,101.84Z" transform="translate(-321.255 -90.829)"/><path class="a" d="M461.233,100c.886,1.139.538,1.55-1.708,2.372-2.278.822-2.594.791-3.416-.285l-6.421-8.572L446.809,96.3v5.567a1.068,1.068,0,0,1-1.139.917h-3.132a1.068,1.068,0,0,1-1.139-.917V72.382c0-1.455.411-1.582,2.689-1.582,2.594,0,2.689.19,2.689,1.582V89.147l8.794-8.446c.981-.917,1.518-.854,3.227.285,1.9,1.234,2.056,1.582,1.139,2.467l-6.548,6.39Z" transform="translate(-368.907 -70.797)"/></g><g transform="translate(62.157 71.223)"><rect class="a" width="5.567" height="5.377" transform="matrix(0.948, -0.318, 0.318, 0.948, 16.289, 18.149)"/><g transform="translate(0)"><rect class="a" width="5.567" height="5.377" transform="matrix(0.948, -0.318, 0.318, 0.948, 16.289, 18.149)"/><path class="a" d="M100.066,86.5C95.985,72.9,90.1,69.735,76.5,73.815S59.735,83.78,63.815,97.381s9.964,16.765,23.566,12.685S104.147,100.1,100.066,86.5ZM93.2,95.325l-2.562.854.886,2.657a2.053,2.053,0,0,1-1.3,2.594,1.766,1.766,0,0,1-.7.095,2.111,2.111,0,0,1-1.9-1.392l-.886-2.657-5.283,1.771.886,2.657a2.053,2.053,0,0,1-1.3,2.594,1.766,1.766,0,0,1-.7.095,2.111,2.111,0,0,1-1.9-1.392l-.886-2.657-2.562.854a1.766,1.766,0,0,1-.7.095,2.111,2.111,0,0,1-1.9-1.392,2.053,2.053,0,0,1,1.3-2.594l2.562-.854L74.57,91.561l-2.562.854a1.766,1.766,0,0,1-.7.095,2.111,2.111,0,0,1-1.9-1.392,2.053,2.053,0,0,1,1.3-2.594l2.562-.854-.886-2.657a2.051,2.051,0,1,1,3.891-1.3l.886,2.657L82.447,84.6l-.886-2.657a2.051,2.051,0,0,1,3.891-1.3l.886,2.657,2.562-.854a2.051,2.051,0,0,1,1.3,3.891l-2.562.854,1.708,5.093,2.562-.854a2.051,2.051,0,1,1,1.3,3.891Z" transform="translate(-62.157 -72.157)"/></g></g></g></svg>